#N canvas 396 119 224 197 10;
#X declare -lib mrpeach;
#N canvas 710 320 422 275 rack2 0;
#N canvas 385 141 780 592 osc_management 0;
#X obj 337 0 key;
#X obj 46 201 tgl 15 0 empty empty verbose 17 7 0 10 -262144 -1 -1
0 1;
#X obj 13 222 spigot;
#X obj 13 75 unpackOSC;
#X obj 141 26 tgl 15 0 empty empty OSC 17 7 0 10 -4034 -1 -1 1 1;
#X obj 13 47 spigot;
#X obj 13 -26 import mrpeach;
#X obj 13 247 print in:;
#X obj 141 -24 inlet OSConOff;
#X obj 13 -1 udpreceive 12000;
#X floatatom 337 52 5 0 0 0 - - -;
#X obj 337 116 mtof;
#X floatatom 337 138 5 0 0 0 - - -;
#X obj 337 157 + 0;
#X obj 337 70 moses 49;
#X obj 337 93 moses 58;
#X obj 414 68 sel 32;
#X msg 414 98 51;
#X text 417 27 Suona con i numeri e usa lo spazio per il suono più
grave;
#X obj 370 3 tgl 15 0 empty empty keyboard 17 7 0 10 -4034 -1 -1 0
1;
#X obj 337 24 spigot;
#X obj 370 -33 inlet keybONoff;
#X obj 156 255 bng 15 250 50 0 empty empty empty 17 7 0 10 -262144
-1 -1;
#X obj 234 254 bng 15 250 50 0 empty empty empty 17 7 0 10 -262144
-1 -1;
#X obj 298 255 bng 15 250 50 0 empty empty empty 17 7 0 10 -262144
-1 -1;
#X obj 216 203 s \$0-fuori-bang;
#X obj 203 365 r \$0-fuori-bang;
#X obj 12 363 r \$0-impatto-bang;
#X obj 146 310 s \$0-impatto-bang;
#X msg 146 276 195;
#X msg 216 275 138;
#X msg 12 392 0 \, 1 5 \, 0.8 20 5 \, 0 100 25 \; dc 0.5 \; freq \$1
\;;
#X msg 203 392 0 \, 1 5 \, 0.8 400 5 \, 0 100 405 \; dc 0.2 \; freq
\$1 \;;
#X obj 12 485 outlet toVline;
#X obj 230 155 bng 15 250 50 0 empty empty empty 17 7 0 10 -262144
-1 -1;
#X obj 164 156 bng 15 250 50 0 empty empty empty 17 7 0 10 -262144
-1 -1;
#X obj 337 184 s \$0-impatto-bang;
#X obj 414 123 s \$0-fuori-bang;
#X msg 216 176 51;
#X obj 146 129 routeOSC /impatto /fuori;
#X obj 146 229 routeOSC /paletta /bordo;
#X text 14 -74 questa patch serve per smistare i messaggi OSC in arrivo.
All'occorrenza e' possibile suonare le varie parti della batteria cliccando
sul toggle keyboard.;
#X obj 168 487 outlet check;
#X connect 0 0 20 0;
#X connect 1 0 2 1;
#X connect 2 0 7 0;
#X connect 3 0 2 0;
#X connect 3 0 39 0;
#X connect 4 0 5 1;
#X connect 5 0 3 0;
#X connect 5 0 42 0;
#X connect 8 0 4 0;
#X connect 9 0 5 0;
#X connect 10 0 14 0;
#X connect 10 0 16 0;
#X connect 11 0 12 0;
#X connect 12 0 13 0;
#X connect 13 0 36 0;
#X connect 14 1 15 0;
#X connect 15 0 11 0;
#X connect 16 0 17 0;
#X connect 17 0 37 0;
#X connect 19 0 20 1;
#X connect 20 0 10 0;
#X connect 21 0 19 0;
#X connect 26 0 32 0;
#X connect 27 0 31 0;
#X connect 29 0 28 0;
#X connect 30 0 28 0;
#X connect 31 0 33 0;
#X connect 32 0 33 0;
#X connect 38 0 25 0;
#X connect 39 0 35 0;
#X connect 39 0 40 0;
#X connect 39 1 34 0;
#X connect 39 1 38 0;
#X connect 40 0 22 0;
#X connect 40 0 29 0;
#X connect 40 1 23 0;
#X connect 40 1 30 0;
#X connect 40 2 24 0;
#X restore 207 163 pd osc_management;
#X obj 19 96 tgl 30 0 empty empty OSC 35 7 0 10 -4034 -1 -1 1 1;
#X obj 18 56 tgl 30 0 empty empty keyb_TEST 35 7 0 10 -4034 -1 -1 0
1;
#X obj 206 185 s data;
#X obj 18 17 tgl 30 0 empty empty AUDIO_ON 35 7 0 10 -24198 -42246
-1 1 1;
#X msg 128 75 \; pd dsp \$1;
#X obj 128 47 f;
#X obj 197 45 sel 1;
#X msg 247 67 color 16 26 22;
#X msg 247 91 color 13 0 22;
#X text 18 139 limulo.net;
#X text 19 156 CC BY-SA 4;
#X obj 291 21 loadbang;
#X obj 87 112 bng 15 250 50 0 empty empty empty 17 7 0 10 -1 -257985
-1;
#X connect 0 0 3 0;
#X connect 0 1 13 0;
#X connect 1 0 0 0;
#X connect 2 0 0 1;
#X connect 4 0 6 0;
#X connect 6 0 5 0;
#X connect 6 0 7 0;
#X connect 7 0 8 0;
#X connect 7 1 9 0;
#X connect 8 0 4 0;
#X connect 9 0 4 0;
#X connect 12 0 9 0;
#X coords 0 -1 1 1 100 180 2 10 10;
#X restore 104 -68 pd rack2;
#N canvas 548 194 366 219 pong-sounds 0;
#X floatatom 178 23 5 20 22000 2 Freq freq -;
#X obj 226 22 hsl 100 15 0.15 0.85 0 0 empty dc Duty_Cylce -2 -8 0
10 -257985 -1 -1 707 1;
#X obj 275 70 vline~;
#X obj 178 91 *~;
#X obj 163 141 clip~ -0.9 0.9;
#X obj 163 171 dac~;
#X msg 116 34 \$1 20;
#X obj 116 56 line~;
#X obj 163 118 *~;
#X obj 274 103 loadbang;
#X msg 274 125 \; dc 0.5 \; vol 75;
#X obj 116 11 dbtorms;
#X obj 275 47 r data;
#X obj 51 50 vsl 15 128 0 99 0 0 empty vol Volume 0 -9 0 10 -260097
-1 -1 11921 1;
#N canvas 665 207 450 300 square-wave 0;
#X obj 29 47 phasor~;
#X floatatom 29 0 5 0 0 2 Freq - -;
#X obj 43 95 phasor~;
#X msg 68 22 0;
#X obj 43 71 * -1;
#X floatatom 123 72 5 0 0 0 - - -;
#X obj 28 151 -~;
#X obj 28 125 +~;
#X obj 28 172 *~ 2;
#X obj 28 194 -~ 1;
#X obj 29 -50 inlet freq;
#X obj 123 -49 inlet DC;
#X obj 28 224 outlet~;
#X connect 0 0 7 0;
#X connect 1 0 0 0;
#X connect 1 0 4 0;
#X connect 2 0 7 1;
#X connect 3 0 0 1;
#X connect 4 0 2 0;
#X connect 5 0 2 1;
#X connect 5 0 3 0;
#X connect 5 0 6 1;
#X connect 6 0 8 0;
#X connect 7 0 6 0;
#X connect 8 0 9 0;
#X connect 9 0 12 0;
#X connect 10 0 1 0;
#X connect 11 0 5 0;
#X restore 178 48 pd square-wave;
#X connect 0 0 14 0;
#X connect 1 0 14 1;
#X connect 2 0 3 1;
#X connect 3 0 8 1;
#X connect 4 0 5 0;
#X connect 4 0 5 1;
#X connect 6 0 7 0;
#X connect 7 0 8 0;
#X connect 8 0 4 0;
#X connect 9 0 10 0;
#X connect 11 0 6 0;
#X connect 12 0 2 0;
#X connect 13 0 11 0;
#X connect 14 0 3 0;
#X coords 0 -1 1 1 100 180 1 10 10;
#X restore 0 -68 pd pong-sounds;
